<svg width="41" height="18" viewBox="0 0 41 18" fill="none" xmlns="http://www.w3.org/2000/svg">
<g id="Logo">
<rect id="Rectangle 1" y="2" width="35.2791" height="16" fill="black"/>
<path id="op" d="M23.7913 13.108C23.1673 13.108 22.6033 12.968 22.0993 12.688C21.5953 12.4 21.1993 12 20.9113 11.488C20.6233 10.968 20.4793 10.368 20.4793 9.688C20.4793 9.016 20.6273 8.42 20.9233 7.9C21.2193 7.38 21.6233 6.98 22.1353 6.7C22.6473 6.42 23.2193 6.28 23.8513 6.28C24.4833 6.28 25.0553 6.42 25.5673 6.7C26.0793 6.98 26.4833 7.38 26.7793 7.9C27.0753 8.42 27.2233 9.016 27.2233 9.688C27.2233 10.36 27.0713 10.956 26.7673 11.476C26.4633 11.996 26.0473 12.4 25.5193 12.688C24.9993 12.968 24.4233 13.108 23.7913 13.108ZM23.7913 11.92C24.1433 11.92 24.4713 11.836 24.7753 11.668C25.0873 11.5 25.3393 11.248 25.5313 10.912C25.7233 10.576 25.8193 10.168 25.8193 9.688C25.8193 9.208 25.7273 8.804 25.5433 8.476C25.3593 8.14 25.1153 7.888 24.8113 7.72C24.5073 7.552 24.1793 7.468 23.8273 7.468C23.4753 7.468 23.1473 7.552 22.8433 7.72C22.5473 7.888 22.3113 8.14 22.1353 8.476C21.9593 8.804 21.8713 9.208 21.8713 9.688C21.8713 10.4 22.0513 10.952 22.4113 11.344C22.7793 11.728 23.2393 11.92 23.7913 11.92ZM29.9436 7.36C30.1756 7.056 30.4916 6.8 30.8916 6.592C31.2916 6.384 31.7436 6.28 32.2476 6.28C32.8236 6.28 33.3476 6.424 33.8196 6.712C34.2996 6.992 34.6756 7.388 34.9476 7.9C35.2196 8.412 35.3556 9 35.3556 9.664C35.3556 10.328 35.2196 10.924 34.9476 11.452C34.6756 11.972 34.2996 12.38 33.8196 12.676C33.3476 12.964 32.8236 13.108 32.2476 13.108C31.7436 13.108 31.2956 13.008 30.9036 12.808C30.5116 12.6 30.1916 12.344 29.9436 12.04V16.144H28.5756V6.388H29.9436V7.36ZM33.9636 9.664C33.9636 9.208 33.8676 8.816 33.6756 8.488C33.4916 8.152 33.2436 7.9 32.9316 7.732C32.6276 7.556 32.2996 7.468 31.9476 7.468C31.6036 7.468 31.2756 7.556 30.9636 7.732C30.6596 7.908 30.4116 8.164 30.2196 8.5C30.0356 8.836 29.9436 9.232 29.9436 9.688C29.9436 10.144 30.0356 10.544 30.2196 10.888C30.4116 11.224 30.6596 11.48 30.9636 11.656C31.2756 11.832 31.6036 11.92 31.9476 11.92C32.2996 11.92 32.6276 11.832 32.9316 11.656C33.2436 11.472 33.4916 11.208 33.6756 10.864C33.8676 10.52 33.9636 10.12 33.9636 9.664Z" fill="#F1F1F1"/>
<path id="S" d="M4.60149 13.084C4.04149 13.084 3.53749 12.988 3.08949 12.796C2.64149 12.596 2.28949 12.316 2.03349 11.956C1.77749 11.596 1.64949 11.176 1.64949 10.696H3.11349C3.14549 11.056 3.28549 11.352 3.53349 11.584C3.78949 11.816 4.14549 11.932 4.60149 11.932C5.07349 11.932 5.44149 11.82 5.70549 11.596C5.96949 11.364 6.10149 11.068 6.10149 10.708C6.10149 10.428 6.01749 10.2 5.84949 10.024C5.68949 9.848 5.48549 9.712 5.23749 9.616C4.99749 9.52 4.66149 9.416 4.22949 9.304C3.68549 9.16 3.24149 9.016 2.89749 8.872C2.56149 8.72 2.27349 8.488 2.03349 8.176C1.79349 7.864 1.67349 7.448 1.67349 6.928C1.67349 6.448 1.79349 6.028 2.03349 5.668C2.27349 5.308 2.60949 5.032 3.04149 4.84C3.47349 4.648 3.97349 4.552 4.54149 4.552C5.34949 4.552 6.00949 4.756 6.52149 5.164C7.04149 5.564 7.32949 6.116 7.38549 6.82H5.87349C5.84949 6.516 5.70549 6.256 5.44149 6.04C5.17749 5.824 4.82949 5.716 4.39749 5.716C4.00549 5.716 3.68549 5.816 3.43749 6.016C3.18949 6.216 3.06549 6.504 3.06549 6.88C3.06549 7.136 3.14149 7.348 3.29349 7.516C3.45349 7.676 3.65349 7.804 3.89349 7.9C4.13349 7.996 4.46149 8.1 4.87749 8.212C5.42949 8.364 5.87749 8.516 6.22149 8.668C6.57349 8.82 6.86949 9.056 7.10949 9.376C7.35749 9.688 7.48149 10.108 7.48149 10.636C7.48149 11.06 7.36549 11.46 7.13349 11.836C6.90949 12.212 6.57749 12.516 6.13749 12.748C5.70549 12.972 5.19349 13.084 4.60149 13.084Z" fill="#F1F1F1"/>
<g id="cart">
<path id="Stroke 1" opacity="0.9" fill-rule="evenodd" clip-rule="evenodd" d="M11.7624 12.5947C11.9636 12.5947 12.1271 12.7519 12.1271 12.9454C12.1271 13.1388 11.9636 13.2955 11.7624 13.2955C11.5612 13.2955 11.3982 13.1388 11.3982 12.9454C11.3982 12.7519 11.5612 12.5947 11.7624 12.5947Z" stroke="white" stroke-linecap="round" stroke-linejoin="round"/>
<path id="Stroke 3" opacity="0.9" fill-rule="evenodd" clip-rule="evenodd" d="M17.1269 12.5947C17.3281 12.5947 17.4916 12.7519 17.4916 12.9454C17.4916 13.1388 17.3281 13.2955 17.1269 13.2955C16.9257 13.2955 16.7622 13.1388 16.7622 12.9454C16.7622 12.7519 16.9257 12.5947 17.1269 12.5947Z" stroke="white" stroke-linecap="round" stroke-linejoin="round"/>
<path id="Stroke 5" d="M9.53491 5L10.5265 5.165L10.9856 10.4235C11.0228 10.852 11.3952 11.1811 11.8424 11.1811H17.0446C17.4717 11.1811 17.8341 10.8795 17.8956 10.4725L18.348 7.46675C18.4038 7.09596 18.1049 6.76413 17.7154 6.76413H10.6858" stroke="#E6E6E6" stroke-linecap="round" stroke-linejoin="round"/>
<path id="Stroke 7" opacity="0.8" d="M14.9581 8.45811H16.2801" stroke="#FFF7F7" stroke-width="0.5" stroke-linecap="round" stroke-linejoin="round"/>
</g>
</g>
</svg>
